<svg xmlns="http://www.w3.org/2000/svg" xmlns:xlink="http://www.w3.org/1999/xlink" version="1.1" x="0px" y="0px" viewBox="0 0 100 125" enable-background="new 0 0 100 100" xml:space="preserve"><g><path d="M23.1,43.3l-2.1-0.1c-1,1.9-1.6,3.9-1.7,6.1l1.9,0C21.3,47.2,22,45.1,23.1,43.3z"/><path d="M19.2,51c0.1,2.4,0.7,4.6,1.7,6.6c-0.3,0-0.5,0-0.8,0.1c-0.5,0.1-1,0.1-1.4,0.2C18.3,57.9,18,58,18,58s0.3,0.1,0.6,0.2   c0.4,0.1,0.9,0.1,1.4,0.2c0.5,0,0.9,0.1,1.3,0.1c0.3,0.6,0.7,1.1,1.1,1.6l2.5,0c-2.3-2.3-3.8-5.5-3.9-9c0.8,0,1.5,0,2,0   c0.6,0,1-0.5,1-0.5s-0.3-0.4-1-0.5c-0.6,0-1.5,0-2.5,0c-0.3,0-0.6,0-0.9,0l-0.5,0c0,0,0,0,0,0c-1.9,0-4.1,0-6.3,0.1   c-2.8,0.1-5.6,0.1-7.7,0.2c-2.1,0.1-3.5,0.2-3.5,0.2s1.4,0.1,3.5,0.2c2.1,0.1,4.9,0.1,7.7,0.2C15.1,51,17.3,51,19.2,51z"/><path d="M16.4,55.6c0.5,0,1,0,1.3,0c0.3,0,0.5-0.5,0.5-0.5s-0.2-0.4-0.5-0.5c-0.3,0-0.7,0-1.3,0c-1,0-2.4,0-3.8,0.1   c-1.4,0.1-2.8,0.1-3.8,0.2C7.7,55,7,55.1,7,55.1s0.7,0.1,1.7,0.2c1,0.1,2.4,0.1,3.8,0.2C13.9,55.5,15.3,55.5,16.4,55.6z"/><path d="M80.1,51.9l-1.9,0c-0.2,2.2-0.8,4.2-1.9,6l2.1,0.1C79.4,56.2,80,54.1,80.1,51.9z"/><path d="M76,61.4c0.6-0.6,1.1-1.2,1.5-1.9c1.3-0.1,2.6-0.1,3.5-0.2c1-0.1,1.7-0.2,1.7-0.2s-0.7-0.1-1.7-0.2c-1-0.1-2.4-0.1-3.8-0.2   c-1.4-0.1-2.8-0.1-3.8-0.1c-0.5,0-1,0-1.3,0c-0.3,0-0.5,0.5-0.5,0.5s0.2,0.4,0.5,0.5c0.3,0,0.7,0,1.3,0c0.5,0,1.1,0,1.8,0   c-2.5,3.1-6.3,5.1-10.6,5.1c-6.9,0-12.6-5.1-13.6-11.8l1.8,2.2l0.1,0.1l0.1,0l2.8,0.2l2,1.5l-1.7-2l-0.1-0.1l-0.1,0l-2.8-0.2   l-2-2.6l5.1-0.4l3.4,1.6l0.1,0l0.1,0l2-0.8l-2,0.2L56.4,51l-0.1,0l-0.1,0l-5.4,0.4c0,0,0,0,0,0l3.5-2.4l0.1,0l0-0.1l1.5-3.1   l3.9-1.3l-4.1,0.8l-0.1,0l-0.1,0.1L54,48.6l-3.1,2.2c0-7.5,6.2-13.6,13.7-13.6c2.9,0,5.6,0.9,7.8,2.5c-0.8,0-1.5,0-2,0   c-0.5,0-0.8,0.4-0.8,0.4v0c0,0,0.3,0.4,0.8,0.4c0.5,0,1.2,0,2.1,0c0.6,0,1.3,0,2,0l1.6,0c0,0,0,0,0,0c0.9,0,1.8,0,2.8,0   c2.3-0.1,4.6-0.1,6.4-0.2c1.7-0.1,2.9-0.2,2.9-0.2s-1.2-0.1-2.9-0.2c-1.7-0.1-4.1-0.1-6.4-0.2c-1.2,0-2.4,0-3.6,0   c-1.6-1.6-3.6-2.8-5.8-3.6c0.6,0,1.2-0.1,1.7-0.1c0.8-0.1,1.3-0.2,1.3-0.2s-0.5-0.1-1.3-0.2c-0.8-0.1-1.8-0.1-2.8-0.2   c-0.7,0-1.5,0-2.1-0.1c-0.6-0.1-1.1-0.1-1.7-0.1c-7,0-12.9,4.6-14.9,10.9c-1.9-6.5-7.9-11.3-15-11.3c-4.1,0-7.8,1.6-10.6,4.2   L8.7,39.5l14.6,0.4c-0.6,0.6-1.1,1.2-1.5,1.9c-1.3,0.1-2.6,0.1-3.5,0.2c-1,0.1-1.7,0.2-1.7,0.2s0.7,0.1,1.7,0.2   c1,0.1,2.4,0.1,3.8,0.2c1.4,0.1,2.8,0.1,3.8,0.1c0.5,0,1,0,1.3,0c0.3,0,0.5-0.5,0.5-0.5s-0.2-0.4-0.5-0.5c-0.3,0-0.7,0-1.3,0   c-0.5,0-1.1,0-1.8,0c2.5-3.1,6.3-5.1,10.6-5.1c7.4,0,13.5,5.9,13.7,13.3l-1.4-2.8l0-0.1l-0.1,0L44,45.9l-2.9-2.4l2.6,2.9l0,0l0.1,0   l2.8,1.2l1.8,3.6c0,0.1,0,0.1,0,0.2L45,51.8l-3-1.7L41.9,50l-0.1,0l-3.4,1.2l3.5-0.7l2.6,1.5l-1.9,0.5l-0.1,0l-0.1,0.1l-1.4,2.5   l-2.2,1.2l2.5-0.7l0.1,0l0.1-0.1l1.4-2.4l3.4-0.8l0,0l2.2-0.2c-0.8,6.8-6.6,12.1-13.6,12.1c-2.9,0-5.7-0.9-7.9-2.5c0.8,0,1.5,0,2,0   c0.5,0,0.8-0.4,0.8-0.4v0c0,0-0.3-0.4-0.8-0.4c-0.5,0-1.2,0-2.1,0c-1.7,0-4.1,0.1-6.4,0.1c-2.3,0.1-4.6,0.1-6.4,0.2   c-1.7,0.1-2.9,0.2-2.9,0.2s1.2,0.1,2.9,0.2c1.7,0.1,4.1,0.1,6.4,0.2c1.2,0,2.4,0,3.5,0c1.6,1.6,3.6,2.9,5.9,3.6   c-0.6,0-1.2,0.1-1.7,0.1c-0.8,0.1-1.3,0.2-1.3,0.2s0.5,0.1,1.3,0.2c0.8,0.1,1.8,0.1,2.8,0.2c0.7,0,1.5,0,2.1,0.1   c0.6,0.1,1.1,0.1,1.7,0.1c7,0,12.9-4.6,14.9-10.9c1.9,6.5,7.9,11.3,15,11.3c4.1,0,7.8-1.6,10.6-4.2l15.4-0.4L76,61.4z"/><path d="M94.2,50.6c-2.1-0.1-4.9-0.1-7.7-0.2c-2.2,0-4.5,0-6.3-0.1c-0.1-2.4-0.7-4.6-1.7-6.6c0.3,0,0.5,0,0.8-0.1   c0.5-0.1,1-0.1,1.4-0.2c0.4-0.1,0.6-0.2,0.6-0.2s-0.3-0.1-0.6-0.2c-0.4-0.1-0.9-0.1-1.4-0.2c-0.5,0-0.9-0.1-1.3-0.1   c-0.3-0.6-0.7-1.1-1.1-1.6l-2.5,0c2.3,2.3,3.8,5.5,3.9,9c-0.8,0-1.5,0-2,0c-0.6,0-1,0.5-1,0.5s0.3,0.4,1,0.5c0.5,0,1.2,0,2,0   c0,0,0,0,0,0l1.9,0c0,0,0,0,0,0c1.9,0,4.1,0,6.3-0.1c2.8-0.1,5.6-0.1,7.7-0.2c2.1-0.1,3.5-0.2,3.5-0.2S96.2,50.7,94.2,50.6z"/><path d="M83,45.7c-0.5,0-1,0-1.3,0c-0.3,0-0.5,0.5-0.5,0.5s0.2,0.4,0.5,0.5c0.3,0,0.7,0,1.3,0c1,0,2.4,0,3.8-0.1   c1.4-0.1,2.8-0.1,3.8-0.2c1-0.1,1.7-0.2,1.7-0.2s-0.7-0.1-1.7-0.2c-1-0.1-2.4-0.1-3.8-0.2C85.4,45.8,84,45.8,83,45.7z"/><polygon points="47.1,53.9 44.6,54.7 44.5,54.7 44.5,54.7 43,56.9 44.8,55.2  "/><polygon points="54.8,43.8 54.7,43.8 53.2,45.9 55,44.1 57.3,42.9 54.8,43.8  "/></g></svg>